<svg width="80" height="84" viewBox="0 0 80 84" fill="none" xmlns="http://www.w3.org/2000/svg">
<path d="M26 13V29H55V13C55 3 40.2542 3 40.2542 3C40.2542 3 26 3 26 13Z" stroke="#333333" stroke-width="5"/>
<path fill-rule="evenodd" clip-rule="evenodd" d="M10 24C4.47717 24 0 28.4772 0 34V74C0 79.5228 4.47717 84 10 84H70C75.5228 84 80 79.5228 80 74V34C80 28.4772 75.5228 24 70 24H10ZM41 72C49.8365 72 57 66.6274 57 60C57 53.3726 49.8365 48 41 48C32.1635 48 25 53.3726 25 60C25 66.6274 32.1635 72 41 72ZM61 46C61 48.2091 59.2091 50 57 50C54.7909 50 53 48.2091 53 46C53 43.7909 54.7909 42 57 42C59.2091 42 61 43.7909 61 46ZM24 50C26.2091 50 28 48.2091 28 46C28 43.7909 26.2091 42 24 42C21.7909 42 20 43.7909 20 46C20 48.2091 21.7909 50 24 50ZM39 40.5C39 42.9852 36.9852 45 34.5 45C32.0148 45 30 42.9852 30 40.5C30 38.0148 32.0148 36 34.5 36C36.9852 36 39 38.0148 39 40.5ZM46.5 45C48.9852 45 51 42.9852 51 40.5C51 38.0148 48.9852 36 46.5 36C44.0148 36 42 38.0148 42 40.5C42 42.9852 44.0148 45 46.5 45Z" fill="#333333"/>
</svg>
