<svg width="120" height="120" viewBox="0 0 120 120" fill="none" xmlns="http://www.w3.org/2000/svg">
<circle cx="60" cy="60" r="60" fill="white"/>
<path d="M46 29V45H75V29C75 19 60.2542 19 60.2542 19C60.2542 19 46 19 46 29Z" stroke="#333333" stroke-width="5"/>
<path fill-rule="evenodd" clip-rule="evenodd" d="M30 40C24.4772 40 20 44.4772 20 50V90C20 95.5228 24.4772 100 30 100H90C95.5229 100 100 95.5228 100 90V50C100 44.4772 95.5229 40 90 40H30ZM61 88C69.8366 88 77 82.6274 77 76C77 69.3726 69.8366 64 61 64C52.1634 64 45 69.3726 45 76C45 82.6274 52.1634 88 61 88ZM81 62C81 64.2091 79.2091 66 77 66C74.7909 66 73 64.2091 73 62C73 59.7909 74.7909 58 77 58C79.2091 58 81 59.7909 81 62ZM44 66C46.2091 66 48 64.2091 48 62C48 59.7909 46.2091 58 44 58C41.7909 58 40 59.7909 40 62C40 64.2091 41.7909 66 44 66ZM59 56.5C59 58.9853 56.9853 61 54.5 61C52.0147 61 50 58.9853 50 56.5C50 54.0147 52.0147 52 54.5 52C56.9853 52 59 54.0147 59 56.5ZM66.5 61C68.9853 61 71 58.9853 71 56.5C71 54.0147 68.9853 52 66.5 52C64.0147 52 62 54.0147 62 56.5C62 58.9853 64.0147 61 66.5 61Z" fill="#333333"/>
</svg>
